<?xml version="1.0" encoding="UTF-8"?>
<svg width="24px" height="24px" viewBox="0 0 24 24" version="1.1" xmlns="http://www.w3.org/2000/svg" xmlns:xlink="http://www.w3.org/1999/xlink">
    <!-- Generator: Sketch 41.2 (35397) - http://www.bohemiancoding.com/sketch -->
    <title>bell</title>
    <desc>Created with Sketch.</desc>
    <defs></defs>
    <g id="Page-1" stroke="none" stroke-width="1" fill="none" fill-rule="evenodd">
        <g id="bell" fill="#000000">
            <path d="M12.5,21 C13.6,21 14.5,20.1 14.5,19 L10.5,19 C10.5,20.1 11.4,21 12.5,21 L12.5,21 L12.5,21 Z M19,16 L19,10.5 C19,7.4 16.9,4.9 14,4.2 L14,3.5 C14,2.7 13.3,2 12.5,2 C11.7,2 11,2.7 11,3.5 L11,4.2 C8.1,4.9 6,7.4 6,10.5 L6,16 L4,18 L4,19 L21,19 L21,18 L19,16 L19,16 Z"></path>
        </g>
    </g>
</svg>