<?xml version="1.0" encoding="utf-8"?>
<!-- Generator: Adobe Illustrator 20.0.0, SVG Export Plug-In . SVG Version: 6.00 Build 0)  -->
<svg version="1.1" id="Layer_1" xmlns="http://www.w3.org/2000/svg" xmlns:xlink="http://www.w3.org/1999/xlink" x="0px" y="0px"
	 viewBox="0 0 24 24" style="enable-background:new 0 0 24 24;" xml:space="preserve">
<style type="text/css">
	.st0{fill:#555555;}
</style>
<g>
	<path class="st0" d="M21.776,11.673l-4.548-5.229c-0.182-0.208-0.497-0.23-0.705-0.049s-0.23,0.497-0.049,0.706l4.262,4.901
		l-4.262,4.901c-0.182,0.208-0.159,0.524,0.049,0.705c0.095,0.083,0.212,0.123,0.328,0.123c0.14,0,0.278-0.059,0.377-0.172
		l4.548-5.229C21.94,12.141,21.94,11.861,21.776,11.673z"/>
	<path class="st0" d="M7.492,6.395c-0.208-0.18-0.524-0.16-0.706,0.049l-4.548,5.229c-0.164,0.188-0.164,0.468,0,0.656l4.548,5.229
		c0.099,0.113,0.238,0.172,0.377,0.172c0.117,0,0.233-0.04,0.328-0.123c0.208-0.181,0.23-0.497,0.049-0.705l-4.263-4.901L7.541,7.1
		C7.722,6.892,7.7,6.576,7.492,6.395z"/>
	<path class="st0" d="M15.646,2.102C15.386,2.008,15.1,2.141,15.005,2.4L8.058,21.394c-0.095,0.26,0.039,0.547,0.298,0.642
		c0.057,0.021,0.115,0.03,0.172,0.03c0.204,0,0.396-0.126,0.47-0.328l6.947-18.994C16.039,2.485,15.905,2.198,15.646,2.102z"/>
</g>
</svg>
