<?xml version="1.0" encoding="utf-8"?>
<!-- Generator: Adobe Illustrator 20.0.0, SVG Export Plug-In . SVG Version: 6.00 Build 0)  -->
<svg version="1.1" id="Layer_1" xmlns="http://www.w3.org/2000/svg" xmlns:xlink="http://www.w3.org/1999/xlink" x="0px" y="0px"
	 viewBox="0 0 24 24" style="enable-background:new 0 0 24 24;" xml:space="preserve">
<style type="text/css">
	.st0{fill:#555555;}
</style>
<g>
	<path class="st0" d="M19.052,3.043c0-0.012-0.004-0.023-0.004-0.035V3.007c0.011-0.082-0.003-0.161-0.028-0.238
		c-0.325-1.842-3.901-2.508-6.99-2.508c-3.239,0-7.022,0.729-7.022,2.782c0,0.006,0,0.013,0,0.02v12.733
		c0,0.128,0.024,0.253,0.053,0.313c0.542,2.014,4.792,2.326,6.469,2.37v1.778c-0.514,0.201-0.88,0.699-0.88,1.283
		c0,0.761,0.619,1.38,1.38,1.38s1.38-0.619,1.38-1.38c0-0.584-0.366-1.082-0.88-1.283V18.48c1.677-0.044,5.924-0.35,6.448-2.309
		c0.049-0.119,0.074-0.245,0.074-0.375l-0.004-8.483l0,0l0,0l-0.002-4.194C19.05,3.096,19.052,3.066,19.052,3.043z M18.04,11.464
		c-0.26,0.355-2.202,1.477-6.042,1.477c-3.915,0-5.836-1.188-5.986-1.436c-0.001-0.007-0.003-0.016-0.004-0.023V8.393
		c1.191,0.693,3.357,1.242,5.99,1.242c2.658,0,4.843-0.548,6.047-1.24L18.04,11.464z M11.997,5.329c2.662,0,4.851-0.55,6.053-1.243
		l-0.004,3.065c-0.243,0.349-2.187,1.483-6.049,1.483c-3.849,0-5.764-1.145-5.99-1.521V4.086C7.199,4.779,9.365,5.329,11.997,5.329z
		 M12.029,1.261c3.124,0,5.699,0.708,5.993,1.609c-0.306,0.372-2.242,1.459-6.025,1.459c-3.733,0-5.635-1.073-5.954-1.481
		C6.372,1.957,8.931,1.261,12.029,1.261z M12.029,21.92c-0.209,0-0.38-0.171-0.38-0.38s0.17-0.38,0.38-0.38s0.38,0.171,0.38,0.38
		S12.239,21.92,12.029,21.92z M12.029,17.487c-3.119,0-5.756-0.72-6.022-1.691v-3.098c1.191,0.693,3.357,1.243,5.99,1.243
		c2.653,0,4.836-0.547,6.041-1.236l-0.005,3.144C17.785,16.767,15.148,17.487,12.029,17.487z"/>
	<path class="st0" d="M2.988,21.03h-2.5c-0.276,0-0.5,0.224-0.5,0.5s0.224,0.5,0.5,0.5h2.5c0.276,0,0.5-0.224,0.5-0.5
		S3.264,21.03,2.988,21.03z"/>
	<path class="st0" d="M8.485,21.03h-2.5c-0.276,0-0.5,0.224-0.5,0.5s0.224,0.5,0.5,0.5h2.5c0.276,0,0.5-0.224,0.5-0.5
		S8.762,21.03,8.485,21.03z"/>
	<path class="st0" d="M17.989,21.03h-2.5c-0.276,0-0.5,0.224-0.5,0.5s0.224,0.5,0.5,0.5h2.5c0.276,0,0.5-0.224,0.5-0.5
		S18.266,21.03,17.989,21.03z"/>
	<path class="st0" d="M23.487,21.03h-2.5c-0.276,0-0.5,0.224-0.5,0.5s0.224,0.5,0.5,0.5h2.5c0.276,0,0.5-0.224,0.5-0.5
		S23.764,21.03,23.487,21.03z"/>
</g>
</svg>
