<?xml version="1.0" encoding="UTF-8"?>
<svg width="24px" height="24px" viewBox="0 0 24 24" version="1.1" xmlns="http://www.w3.org/2000/svg" xmlns:xlink="http://www.w3.org/1999/xlink">
    <!-- Generator: Sketch 41.2 (35397) - http://www.bohemiancoding.com/sketch -->
    <title>database-connect</title>
    <desc>Created with Sketch.</desc>
    <defs></defs>
    <g id="Page-1" stroke="none" stroke-width="1" fill="none" fill-rule="evenodd">
        <g id="database-connect" fill="#000000">
            <path d="M12,1 C7.58,1 4,2.79 4,5 C4,7.21 7.58,9 12,9 C16.42,9 20,7.21 20,5 C20,2.79 16.42,1 12,1 L12,1 L12,1 L12,1 Z M4,7 L4,10 C4,12.21 7.58,14 12,14 C16.42,14 20,12.21 20,10 L20,7 C20,9.21 16.42,11 12,11 C7.58,11 4,9.21 4,7 L4,7 L4,7 L4,7 Z M11.1000392,18.975 C7.10408218,18.7515685 4,17.0578673 4,15 L4,12 C4,14.21 7.58,16 12,16 C16.42,16 20,14.21 20,12 L20,15 C20,17.0578673 16.8959178,18.7515685 12.8999608,18.975 L13,18.975 L13,21 L18,21 L18,23 L6,23 L6,21 L11,21 L11,18.975 L11.1000392,18.975 L11.1000392,18.975 L11.1000392,18.975 Z M21,22 C21,22.552 20.552,23 20,23 C19.448,23 19,22.552 19,22 C19,21.448 19.448,21 20,21 C20.552,21 21,21.448 21,22 L21,22 L21,22 Z M5,22 C5,22.552 4.552,23 4,23 C3.448,23 3,22.552 3,22 C3,21.448 3.448,21 4,21 C4.552,21 5,21.448 5,22 L5,22 L5,22 Z" id="Shape"></path>
        </g>
    </g>
</svg>