<?xml version="1.0" encoding="UTF-8"?>
<svg width="24px" height="24px" viewBox="0 0 24 24" version="1.1" xmlns="http://www.w3.org/2000/svg" xmlns:xlink="http://www.w3.org/1999/xlink">
    <!-- Generator: Sketch 41.2 (35397) - http://www.bohemiancoding.com/sketch -->
    <title>domo</title>
    <desc>Created with Sketch.</desc>
    <defs></defs>
    <g id="Page-1" stroke="none" stroke-width="1" fill="none" fill-rule="evenodd">
        <g id="domo" fill="#000000">
            <path d="M2,9.32284 L3.69185831,9.32284 C4.05703794,9.32284 4.4017976,9.3936 4.72571727,9.53494 C5.04981695,9.67646 5.33391667,9.86938 5.57827643,10.1137 C5.82259617,10.35808 6.01533598,10.6422 6.15703584,10.96608 C6.24363576,11.16474 6.3035157,11.37106 6.33705567,11.58518 C6.41885558,11.02484 6.67111532,10.53288 7.09431491,10.10982 C7.60861439,9.58504 8.23855376,9.32284 8.98443302,9.32284 C9.72517227,9.32284 10.3551517,9.58504 10.8747712,10.10982 C11.2577907,10.4892 11.5015905,10.92388 11.6076904,11.41358 L11.6076904,9.32284 L14.2847478,11.99992 L16.969765,9.32284 L16.969765,11.41068 C17.0751649,10.92222 17.3165447,10.4883 17.6950243,10.10982 C18.2094437,9.58504 18.8396032,9.32284 19.5854824,9.32284 C20.3261617,9.32284 20.9559211,9.58504 21.4755805,10.1098 C21.6967203,10.32866 21.8710002,10.56658 22,10.82232 L22,2 L2,2 L2,9.32284 L2,9.32284 Z M19.5854824,14.67718 C18.8447432,14.67718 18.2146038,14.41498 17.6949843,13.89018 C17.3165247,13.51544 17.0751249,13.0826 16.969745,12.59242 L16.969745,14.67712 L16.0668459,14.67712 L16.0668459,11.47532 L14.2847477,13.2652 L12.4950695,11.47532 L12.4950695,14.67718 L11.6076904,14.67718 L11.6076904,12.59264 C11.5015705,13.08556 11.2577907,13.51834 10.8747712,13.89018 C10.3551517,14.41496 9.72519228,14.67718 8.98445302,14.67718 C8.24395376,14.67718 7.61377438,14.41498 7.09433491,13.89018 C6.67073533,13.471 6.41849558,12.9794 6.33683567,12.41612 C6.3031557,12.62972 6.24341576,12.8357 6.15703584,13.03384 C6.01533598,13.3579 5.82387618,13.64222 5.58215642,13.88638 C5.34041666,14.1307 5.05627694,14.32356 4.72959727,14.46492 C4.4029376,14.60664 4.05709794,14.67718 3.69187831,14.67718 L2,14.67718 L2,22 L21.99998,22 L21.99998,13.18504 C21.8710002,13.44024 21.6967003,13.67556 21.4755805,13.8902 C20.9559611,14.41498 20.3261617,14.67718 19.5854824,14.67718 L19.5854824,14.67718 Z M4.95329705,13.25764 C5.11545688,13.0929 5.24277676,12.90276 5.33525667,12.68664 C5.42795658,12.4705 5.47419653,12.24182 5.47419653,11.9999 C5.47419653,11.75832 5.42795658,11.5293 5.33525667,11.31336 C5.24275676,11.09724 5.11415688,10.90706 4.94961705,10.74234 C4.78485722,10.57776 4.59455741,10.4492 4.37857763,10.35668 C4.16263783,10.264 3.93359807,10.21774 3.69185831,10.21774 L2.7969392,10.21774 L2.7969392,13.7822 L3.69185831,13.7822 C3.93875806,13.7822 4.17037783,13.73596 4.38631762,13.64326 C4.6022774,13.55076 4.79131721,13.42218 4.95329705,13.25764 L4.95329705,13.25764 Z M20.8428412,13.2652 C21.1925608,12.91032 21.3676007,12.48876 21.3676007,11.99992 C21.3676007,11.51144 21.1925608,11.09228 20.8428412,10.74236 C20.4931615,10.39264 20.0741219,10.21778 19.5855224,10.21778 C19.0968629,10.21778 18.6749233,10.39264 18.3200437,10.74236 C17.975464,11.09226 17.8033842,11.51144 17.8033842,11.99992 C17.8033842,12.48874 17.975464,12.91032 18.3200437,13.2652 C18.6749233,13.60998 19.0968429,13.78228 19.5855224,13.78228 C20.0741419,13.78226 20.4931415,13.60998 20.8428412,13.2652 L20.8428412,13.2652 Z M10.2422118,13.2652 C10.5918914,12.91032 10.7667713,12.48876 10.7667713,11.99992 C10.7667713,11.51144 10.5919114,11.09228 10.2422118,10.74236 C9.89229211,10.39264 9.47313253,10.21778 8.98443302,10.21778 C8.49579351,10.21778 8.07403393,10.39264 7.71915428,10.74236 C7.37457463,11.09226 7.2023148,11.51144 7.2023148,11.99992 C7.2023148,12.48874 7.37457463,12.91032 7.71915428,13.2652 C8.07403393,13.60998 8.49579351,13.78228 8.98443302,13.78228 C9.47313253,13.78226 9.89231211,13.60998 10.2422118,13.2652 L10.2422118,13.2652 Z" id="Shape"></path>
        </g>
    </g>
</svg>