<?xml version="1.0" encoding="utf-8"?>
<!-- Generator: Adobe Illustrator 20.0.0, SVG Export Plug-In . SVG Version: 6.00 Build 0)  -->
<svg version="1.1" id="Layer_1" xmlns="http://www.w3.org/2000/svg" xmlns:xlink="http://www.w3.org/1999/xlink" x="0px" y="0px"
	 viewBox="0 0 24 24" style="enable-background:new 0 0 24 24;" xml:space="preserve">
<style type="text/css">
	.st0{fill:#555555;}
</style>
<g>
	<path class="st0" d="M15.242,11.155c-0.181-0.208-0.496-0.23-0.705-0.049c-0.208,0.181-0.23,0.497-0.049,0.706l2.333,2.684
		l-2.333,2.683c-0.182,0.208-0.159,0.524,0.049,0.705c0.095,0.083,0.212,0.123,0.328,0.123c0.14,0,0.278-0.059,0.377-0.172
		l2.619-3.011c0.164-0.188,0.164-0.468,0-0.656L15.242,11.155z"/>
	<path class="st0" d="M9.537,11.106c-0.208-0.18-0.524-0.16-0.706,0.049l-2.619,3.012c-0.164,0.188-0.164,0.468,0,0.656l2.619,3.011
		c0.099,0.113,0.238,0.172,0.377,0.172c0.117,0,0.233-0.04,0.328-0.123c0.208-0.181,0.23-0.497,0.049-0.705l-2.334-2.683
		l2.334-2.684C9.768,11.603,9.746,11.287,9.537,11.106z"/>
	<path class="st0" d="M14.056,8.392c-0.262-0.088-0.546,0.056-0.632,0.317L9.774,19.73c-0.087,0.262,0.055,0.545,0.317,0.632
		c0.052,0.018,0.105,0.025,0.157,0.025c0.21,0,0.405-0.133,0.475-0.343l3.65-11.021C14.46,8.762,14.317,8.479,14.056,8.392z"/>
	<path class="st0" d="M20.609,3.65l-3.312-3.269c-0.162-0.16-0.385-0.379-0.804-0.379H4.281c-0.71,0-1.287,0.586-1.287,1.306v21.395
		c0,0.717,0.577,1.3,1.287,1.3h15.421c0.712,0,1.291-0.583,1.291-1.3V4.502C20.993,4.082,20.787,3.826,20.609,3.65z M19.542,4.002
		h-2.549V1.487L19.542,4.002z M19.702,23.003H4.281c-0.156,0-0.287-0.138-0.287-0.3V1.308c0-0.166,0.131-0.306,0.287-0.306
		l11.712-0.007v3.507c0,0.276,0.224,0.5,0.5,0.5h3.5v17.701C19.993,22.865,19.86,23.003,19.702,23.003z"/>
</g>
</svg>
