<?xml version="1.0" encoding="UTF-8"?>
<svg width="20px" height="18px" viewBox="0 0 20 18" version="1.1" xmlns="http://www.w3.org/2000/svg" xmlns:xlink="http://www.w3.org/1999/xlink">
    <!-- Generator: Sketch 64 (93537) - https://sketch.com -->
    <title>Objects/erm</title>
    <desc>Created with Sketch.</desc>
    <defs>
        <path d="M20,19 L20,7 L4,7 L4,19 L20,19 L20,19 Z M20,3 C21.1045695,3 22,3.8954305 22,5 L22,19 C22,20.1045695 21.1045695,21 20,21 L4,21 C2.8954305,21 2,20.1045695 2,19 L2,5 C2,3.89 2.9,3 4,3 L20,3 L20,3 Z M13,17 L13,15 L18,15 L18,17 L13,17 L13,17 Z M9.58,13 L5.57,9 L8.4,9 L11.7,12.3 C12.09,12.69 12.09,13.33 11.7,13.72 L8.42,17 L5.59,17 L9.58,13 L9.58,13 Z" id="path-1"></path>
    </defs>
    <g id="Page-1" stroke="none" stroke-width="1" fill="none" fill-rule="evenodd">
        <g id="Objects/erm" transform="translate(-2.000000, -3.000000)">
            <mask id="mask-2" fill="white">
                <use xlink:href="#path-1"></use>
            </mask>
            <use id="🌈-icon-color" fill-opacity="0.5" fill="#000000" fill-rule="nonzero" xlink:href="#path-1"></use>
        </g>
    </g>
</svg>